<svg id="Ebene_1" data-name="Ebene 1" xmlns="http://www.w3.org/2000/svg" viewBox="0 0 160.84 61.62"><defs><style>.cls-1{fill:#fff;}.cls-2{fill:#878787;}.cls-3{fill:#e8e8e8;}.cls-4,.cls-5,.cls-6{fill:none;}.cls-4{stroke:#878787;stroke-width:0.07px;}.cls-5{stroke:#76b82a;stroke-width:0.5px;}</style></defs><title>immvest-logo-bw</title><rect class="cls-1" x="106.82" y="0.08" width="54.01" height="37.83"/><rect class="cls-1" x="64.47" y="11.1" width="40.4" height="26.81"/><rect class="cls-1" x="28.38" y="18.12" width="34.14" height="19.79"/><rect class="cls-1" x="0.4" y="23.63" width="26.04" height="14.28"/><polygon points="112.15 23.14 112.15 37.89 154.63 37.89 154.63 23.06 132.82 1.6 112.15 23.14"/><polygon class="cls-2" points="124.58 22.4 131.48 24.86 131.48 37.91 124.6 37.89 124.58 22.4"/><polygon class="cls-3" points="122.38 24.26 122.38 37.89 124.6 37.89 124.58 22.4 122.38 24.26"/><polygon class="cls-2" points="130.91 5.39 137.75 9.24 137.75 37.89 130.93 37.91 130.91 5.39"/><line class="cls-4" x1="137.75" y1="37.81" x2="130.93" y2="37.81"/><polygon class="cls-3" points="130.92 5.39 128.21 7.63 128.21 37.91 130.94 37.91 130.92 5.39"/><polygon class="cls-2" points="145.17 17.86 145.17 37.89 138.29 37.89 138.27 14.05 145.17 17.86"/><line class="cls-4" x1="145.17" y1="37.81" x2="138.36" y2="37.81"/><path class="cls-4" d="M381.64,273.65" transform="translate(-236.46 -255.79)"/><polygon class="cls-3" points="135.47 16.09 135.47 37.89 138.29 37.89 138.27 14.05 135.47 16.09"/><polygon points="0.38 37.91 26.44 37.91 26.44 33.27 9.46 29.25 0.38 37.91"/><polygon points="28.39 33.7 36.58 35.73 62.52 22.64 62.52 37.91 28.39 37.91 28.39 33.7"/><polygon points="64.47 21.64 66.61 20.48 104.87 29.3 104.87 37.91 64.47 37.91 64.47 21.64"/><path class="cls-5" d="M273,289.38" transform="translate(-236.46 -255.79)"/><path class="cls-5" d="M264.8,287.39" transform="translate(-236.46 -255.79)"/><polyline class="cls-6" points="0 57.97 160.84 57.97 160.84 0"/><path d="M368,255.86l-24.66,25.7v-2L366,255.86Z" transform="translate(-236.46 -255.79)"/><polyline points="64.47 18.31 64.47 19.97 66.61 18.8 104.87 27.62 104.87 26.17 66.56 17.24"/><polyline points="62.52 20.96 62.52 19.34 36.59 32.45 28.38 30.56 28.38 32.01 36.58 34.05"/><polygon points="26.44 31.55 26.44 30.09 9.02 25.97 0.41 34.22 0.39 36.2 9.46 27.53 26.44 31.55"/><path class="cls-1" d="M239.73,317.13h-2.42V297.88h2.42Z" transform="translate(-236.46 -255.79)"/><path class="cls-1" d="M245.85,302.82l.06,1.33a4.24,4.24,0,0,1,3.45-1.59,3.4,3.4,0,0,1,3.35,2.08,4.22,4.22,0,0,1,3.75-2.08q4,0,4.05,4.93v9.64h-2.33v-9.41a3.92,3.92,0,0,0-.56-2.32,2.15,2.15,0,0,0-1.87-.76,2.09,2.09,0,0,0-1.72.82,3.71,3.71,0,0,0-.77,2.09v9.58h-2.35v-9.52c0-2-.84-3-2.42-3a2.53,2.53,0,0,0-2.5,1.77v10.72h-2.33V302.82Z" transform="translate(-236.46 -255.79)"/><path class="cls-1" d="M266.23,302.82l.06,1.33a4.24,4.24,0,0,1,3.45-1.59,3.37,3.37,0,0,1,3.34,2.08,4.24,4.24,0,0,1,3.76-2.08c2.64,0,4,1.64,4.05,4.93v9.64h-2.33v-9.41a3.92,3.92,0,0,0-.56-2.32,2.15,2.15,0,0,0-1.87-.76,2.09,2.09,0,0,0-1.72.82,3.71,3.71,0,0,0-.77,2.09v9.58h-2.35v-9.52c0-2-.84-3-2.42-3a2.53,2.53,0,0,0-2.5,1.77v10.72H264V302.82Z" transform="translate(-236.46 -255.79)"/><path class="cls-1" d="M287.58,313.55l4.3-10.73h2.4l-6.36,14.31h-1.7l-1.94-14.31h2.25Z" transform="translate(-236.46 -255.79)"/><path class="cls-1" d="M299.51,317.4a4.17,4.17,0,0,1-3.6-1.73A6.7,6.7,0,0,1,295,311l.17-1.41a9.6,9.6,0,0,1,2-5.22,5,5,0,0,1,4.12-1.82,3.73,3.73,0,0,1,3.06,1.4,5.85,5.85,0,0,1,1,3.77l-.12,1.59-.2,1.36H297.4a14.17,14.17,0,0,0-.16,1.86,3.28,3.28,0,0,0,.67,2.1,2.27,2.27,0,0,0,1.81.77,3.68,3.68,0,0,0,1.67-.34,5.87,5.87,0,0,0,1.74-1.27l1.07,1.49a5,5,0,0,1-2.09,1.63A6.43,6.43,0,0,1,299.51,317.4Zm1.7-12.84q-2.34-.1-3.28,2.83l-.35,1.28h5.48l.07-.34a10.43,10.43,0,0,0,.08-1.27C303.17,305.47,302.51,304.63,301.21,304.56Z" transform="translate(-236.46 -255.79)"/><path class="cls-1" d="M314.05,313.36c.12-.83-.35-1.53-1.4-2.08l-1.77-.93a5.1,5.1,0,0,1-1.92-1.63,3.25,3.25,0,0,1-.49-2,4.19,4.19,0,0,1,1.48-3,4.87,4.87,0,0,1,3.36-1.16,4,4,0,0,1,3,1.26,4.21,4.21,0,0,1,1,3.09h-2.26a2.44,2.44,0,0,0-.48-1.68,1.75,1.75,0,0,0-1.4-.65,2.48,2.48,0,0,0-1.68.58,2.35,2.35,0,0,0-.79,1.49,1.69,1.69,0,0,0,1,1.76l2.24,1.13q2.47,1.38,2.34,3.65a4.18,4.18,0,0,1-1.56,3.1,5.11,5.11,0,0,1-3.48,1.11,4.38,4.38,0,0,1-3.2-1.29,4.23,4.23,0,0,1-1.15-3.26h2.3a2.67,2.67,0,0,0,.54,1.89,2.08,2.08,0,0,0,1.62.64,2.87,2.87,0,0,0,1.81-.56A2.14,2.14,0,0,0,314.05,313.36Z" transform="translate(-236.46 -255.79)"/><path class="cls-1" d="M324.78,299.36l-.61,3.46h2.1l-.33,1.9h-2.09l-1.5,8.9,0,.53c0,.74.23,1.12.81,1.12a4.29,4.29,0,0,0,.95-.13l-.2,2a3.87,3.87,0,0,1-1.5.24,2,2,0,0,1-1.81-1,4.67,4.67,0,0,1-.45-2.8l1.46-8.86h-2.13l.34-1.9h2.11l.6-3.46Z" transform="translate(-236.46 -255.79)"/><path class="cls-1" d="M346.61,314.74l-.42.53a6.65,6.65,0,0,1-5.34,2.13,6.11,6.11,0,0,1-4.9-2.07,8.85,8.85,0,0,1-1.82-5.85v-3.79q0-4,1.62-6.06a6.82,6.82,0,0,1,9.15-.49,6.35,6.35,0,0,1,1.71,4.37h-2.42a4.89,4.89,0,0,0-1-2.81,3.2,3.2,0,0,0-2.58-1,3.45,3.45,0,0,0-3,1.36,7.72,7.72,0,0,0-1,4.33v3.92a7.64,7.64,0,0,0,1.11,4.47,3.7,3.7,0,0,0,3.19,1.55,4.16,4.16,0,0,0,3-.95l.36-.32v-4.43h-3.52v-2.07h5.94Z" transform="translate(-236.46 -255.79)"/><path class="cls-1" d="M352.44,302.82l.06,1.33a4.24,4.24,0,0,1,3.45-1.59,3.37,3.37,0,0,1,3.34,2.08,4.25,4.25,0,0,1,3.76-2.08q4,0,4.05,4.93v9.64h-2.33v-9.41a3.92,3.92,0,0,0-.56-2.32,2.15,2.15,0,0,0-1.87-.76,2.09,2.09,0,0,0-1.72.82,3.71,3.71,0,0,0-.77,2.09v9.58H357.5v-9.52c0-2-.84-3-2.42-3a2.53,2.53,0,0,0-2.5,1.77v10.72h-2.33V302.82Z" transform="translate(-236.46 -255.79)"/><path class="cls-1" d="M381,310.67a8.72,8.72,0,0,1-1.2,5,4,4,0,0,1-3.49,1.69,3.68,3.68,0,0,1-3.41-2l-.12,1.69h-2.13V296.82H373v7.58a3.66,3.66,0,0,1,3.3-1.84,4,4,0,0,1,3.53,1.67,8.74,8.74,0,0,1,1.19,5Zm-2.32-1.34a6.89,6.89,0,0,0-.71-3.62,2.56,2.56,0,0,0-2.3-1.07,2.87,2.87,0,0,0-2.69,1.95v6.8a2.86,2.86,0,0,0,2.72,1.93,2.48,2.48,0,0,0,2.28-1.11,6.89,6.89,0,0,0,.7-3.44Z" transform="translate(-236.46 -255.79)"/><path class="cls-1" d="M396.91,317.13h-2.44v-8.9h-7.75v8.9H384.3V297.88h2.42v8.28h7.75v-8.28h2.44Z" transform="translate(-236.46 -255.79)"/></svg>